<svg width="210" height="35" viewBox="0 0 210 35" fill="none" xmlns="http://www.w3.org/2000/svg">
<path fill-rule="evenodd" clip-rule="evenodd" d="M5.19314 20.8291C6.44197 21.1196 7.17649 21.5178 7.65646 21.8545C8.85155 22.8061 9.58383 24.3206 9.44014 26.0046C9.25464 28.1814 7.56764 29.9897 5.41857 30.2956C3.91034 30.5101 2.51446 30.007 1.51718 29.0771C1.05998 28.6503 1.11372 27.9015 1.64483 27.5529C2.0259 27.303 2.52528 27.394 2.8653 27.6987C3.44455 28.2175 4.23841 28.4989 5.09722 28.3888C6.35687 28.2273 7.37542 27.1877 7.51949 25.9178C7.7132 24.2173 6.43301 22.9504 4.76019 22.7573C4.74974 22.7562 3.75209 22.6134 3.20158 22.5003L2.55029 23.3986C2.22819 23.8968 1.56608 24.0377 1.07117 23.7131C0.576642 23.3889 0.436681 22.7224 0.759152 22.2242L1.41716 21.3938C0.543425 20.5301 0 19.3286 0 17.9982C0 15.2945 2.23864 13.1173 4.95166 13.2428C5.39319 13.2631 5.81644 13.3532 6.21915 13.4911L6.70846 12.7311C7.03504 12.2359 7.69827 12.101 8.19019 12.4297C8.6821 12.7585 8.81609 13.4261 8.48952 13.9213L7.9487 14.6855L8.43279 15.1405C8.5608 15.2607 8.678 15.3941 8.76944 15.5448C9.18037 16.2222 9.42894 17.007 9.45544 17.8404C9.49649 19.1031 9.19716 20.0834 8.43652 20.9573C8.30327 21.1068 8.0868 21.2766 7.8442 21.4446C6.93426 20.8923 6.31918 20.6544 5.93587 20.5552C6.59462 20.2002 6.86111 19.8433 6.86111 19.8433C7.3896 19.2335 7.53852 18.8886 7.53852 17.9982C7.53852 16.1846 5.84293 14.7697 3.96036 15.2724C2.71488 15.6052 1.90423 16.7395 1.9199 18.0365C1.93073 18.9491 2.32001 19.6828 2.98697 20.1743C3.43373 20.5038 4.10666 20.6537 5.19314 20.8291ZM34.9065 17.9091C34.9065 19.4596 36.155 20.7168 37.6953 20.7168C39.2353 20.7168 40.4841 19.4596 40.4841 17.9091C40.4841 16.3589 39.2353 15.1021 37.6953 15.1021C36.155 15.1021 34.9065 16.3589 34.9065 17.9091ZM33.0012 17.909C33.0012 15.2997 35.1029 13.1841 37.6954 13.1841C40.2878 13.1841 42.3895 15.2997 42.3895 17.909C42.3895 20.5191 40.2878 22.6343 37.6954 22.6343C35.1029 22.6343 33.0012 20.5191 33.0012 17.909ZM18.4886 17.0307C18.1819 15.9246 17.3178 15.1221 16.1071 15.1022C14.8858 15.0823 13.7852 15.8885 13.4123 17.0307H18.4886ZM11.3851 17.4914C11.5889 15.1003 13.6156 13.215 15.9998 13.1846C18.5736 13.1515 20.4367 15.1984 20.5166 17.7585L20.5162 17.7675C20.5088 18.2481 20.1158 18.632 19.6384 18.632H13.3685C13.6857 19.8317 14.7696 20.7165 16.0614 20.7165C16.828 20.7165 17.5214 20.4046 18.0253 19.9004C18.3496 19.5758 18.8501 19.5131 19.2323 19.7663C19.7287 20.0954 19.8168 20.8052 19.3992 21.2308C18.5486 22.0972 17.3673 22.6345 16.0614 22.6345C13.3315 22.6345 11.1463 20.2893 11.3851 17.4914ZM65.5908 15.1022C66.8016 15.1221 67.6656 15.9246 67.9724 17.0307H62.8957C63.2686 15.8885 64.3696 15.0823 65.5908 15.1022ZM65.4834 13.1846C63.0992 13.215 61.0726 15.1003 60.8688 17.4914C60.6299 20.2893 62.8152 22.6345 65.5446 22.6345C66.8509 22.6345 68.0318 22.0972 68.8828 21.2308C69.3005 20.8052 69.212 20.0954 68.716 19.7663C68.3338 19.5131 67.8333 19.5758 67.5086 19.9004C67.0051 20.4046 66.3112 20.7165 65.5446 20.7165C64.2533 20.7165 63.1694 19.8317 62.8521 18.632H69.122C69.5994 18.632 69.9924 18.2481 69.9999 17.7675V17.7585C69.9204 15.1984 68.0572 13.1515 65.4834 13.1846ZM24.8036 14.4006C25.4257 13.8614 26.2405 13.5225 27.2296 13.5169C29.4051 13.5049 30.9615 15.1238 30.9615 17.0997V21.4098C30.9615 21.9877 30.4957 22.4566 29.9213 22.4566C29.3473 22.4566 28.8815 21.9877 28.8815 21.4098V17.4498C28.8815 16.2934 28.2182 15.4804 27.1452 15.3861C25.5037 15.2418 24.8666 16.4257 24.8222 17.4239L24.8155 18.1498V21.4098C24.8155 21.9877 24.3497 22.4566 23.7757 22.4566H23.7335C23.1591 22.4566 22.6933 21.9877 22.6933 21.4098V14.5182C22.6933 13.9287 23.1684 13.4504 23.7544 13.4504C24.3001 13.4504 24.7446 13.8671 24.8036 14.4006ZM55.0534 13.5169C53.7202 13.5244 52.6994 14.1718 52.0493 15.1028C51.4032 14.1424 50.2835 13.509 48.9197 13.5169C47.9329 13.5225 47.1196 13.8813 46.4982 14.443C46.4594 13.8888 46.0051 13.4504 45.4446 13.4504C44.859 13.4504 44.3838 13.9287 44.3838 14.5182V21.4159C44.3838 21.9941 44.8493 22.463 45.4237 22.463H45.4658C46.0402 22.463 46.5056 21.9941 46.5056 21.4159V18.2587L46.5124 17.4239C46.5572 16.4257 47.1939 15.2418 48.8354 15.3861C49.9088 15.4804 50.572 16.2934 50.572 17.4498V21.4159C50.572 21.9941 51.0374 22.463 51.6115 22.463C52.1859 22.463 52.6513 21.9941 52.6513 21.4159V17.3533C52.7226 16.3708 53.366 15.2452 54.969 15.3861C56.0421 15.4804 56.7053 16.2934 56.7053 17.4498V21.4159C56.7053 21.9941 57.1711 22.463 57.7451 22.463C58.3195 22.463 58.785 21.9941 58.785 21.4159V17.0997C58.785 15.1238 57.229 13.5049 55.0534 13.5169Z" fill="#5F4AE5"/>
<rect x="110.311" y="12.5123" width="7.03828" height="11.1192" fill="#FF5F00"/>
<path d="M111.035 18.0739C111.034 15.9045 112.063 13.8547 113.828 12.5153C110.83 10.2369 106.526 10.5687 103.94 13.2777C101.353 15.9866 101.353 20.1631 103.94 22.8721C106.526 25.581 110.83 25.9129 113.828 23.6345C112.063 22.2946 111.033 20.244 111.035 18.0739V18.0739Z" fill="#EB001B"/>
<path fill-rule="evenodd" clip-rule="evenodd" d="M125.089 22.2774V22.7485H125.003V22.2774H124.817V22.1799H125.287V22.2774H125.089ZM126 22.1799V22.7485H125.901V22.318L125.748 22.6876H125.641L125.487 22.318V22.7485H125.385V22.1799H125.527L125.692 22.586L125.858 22.1799H126Z" fill="#F79E1B"/>
<path d="M125.656 18.0729C125.656 20.7802 124.058 23.2498 121.54 24.4328C119.023 25.6159 116.028 25.3047 113.828 23.6315C115.591 22.2909 116.621 20.2414 116.621 18.0719C116.621 15.9023 115.591 13.8529 113.828 12.5123C116.028 10.839 119.023 10.5279 121.54 11.7109C124.058 12.894 125.656 15.3636 125.656 18.0709V18.0729Z" fill="#F79E1B"/>
<path fill-rule="evenodd" clip-rule="evenodd" d="M175.55 16.0732C175.531 17.4915 176.832 18.2831 177.813 18.7536C178.82 19.2365 179.158 19.5461 179.154 19.9778C179.146 20.6387 178.351 20.9303 177.606 20.9417C176.307 20.9615 175.552 20.5961 174.951 20.3196L174.483 22.4774C175.086 22.751 176.201 22.9896 177.358 23C180.074 23 181.85 21.6792 181.86 19.6313C181.871 17.0323 178.211 16.8884 178.236 15.7267C178.245 15.3745 178.586 14.9986 179.334 14.903C179.704 14.8547 180.725 14.8178 181.883 15.3433L182.338 13.2556C181.715 13.0321 180.914 12.8182 179.918 12.8182C177.362 12.8182 175.564 14.1569 175.55 16.0732M186.705 12.998C186.209 12.998 185.791 13.283 185.604 13.7204L181.725 22.8466H184.439L184.979 21.3762H188.295L188.608 22.8466H191L188.913 12.998H186.705M187.084 15.6585L187.868 19.3567H185.723L187.084 15.6585M172.26 12.998L170.121 22.8466H172.706L174.844 12.998H172.26M168.434 12.998L165.743 19.7013L164.654 14.0016C164.526 13.3654 164.022 12.998 163.461 12.998H159.061L159 13.284C159.903 13.4771 160.929 13.7886 161.551 14.1219C161.932 14.3254 162.04 14.5034 162.165 14.9872L164.227 22.8466H166.96L171.15 12.998H168.434" fill="#1A1F71"/>
</svg>
